<svg xmlns="http://www.w3.org/2000/svg" viewBox="0 0 100 100">
  <defs>
    <linearGradient id="grad" x1="0%" y1="0%" x2="100%" y2="100%">
      <stop offset="0%" style="stop-color:#10b981;stop-opacity:1" />
      <stop offset="100%" style="stop-color:#059669;stop-opacity:1" />
    </linearGradient>
  </defs>
  <circle cx="50" cy="50" r="45" fill="url(#grad)" />
  <path d="M50 20 C35 25, 25 40, 30 55 C32 60, 38 65, 45 62 C48 61, 49 58, 48 55 C47 52, 44 50, 42 48 C38 44, 40 38, 45 35 C48 33, 52 33, 55 35 C60 38, 62 44, 58 48 C56 50, 53 52, 52 55 C51 58, 52 61, 55 62 C62 65, 68 60, 70 55 C75 40, 65 25, 50 20Z" fill="white" opacity="0.9"/>
</svg>
